<svg xmlns="http://www.w3.org/2000/svg" width="268" height="148" viewBox="0 0 268 148">
<g>
<path d="M 261.00 117.63 C261.00,119.38 256.50,119.36 252.45,117.59 C248.35,115.81 244.23,110.72 243.43,106.47 C242.41,101.05 239.35,102.34 235.57,109.79 C231.03,118.76 217.33,119.34 211.96,110.81 C210.19,108.00 209.94,106.32 210.28,99.69 C210.63,92.76 211.21,90.81 215.41,82.52 C218.88,75.67 221.72,71.66 226.00,67.58 C231.48,62.35 232.16,62.00 236.78,62.00 C242.34,62.00 247.23,63.42 251.20,66.19 L 253.91 68.07 L 253.32 81.29 C252.80,92.70 253.01,95.63 254.82,102.80 C255.98,107.36 257.84,112.26 258.96,113.68 C260.08,115.10 261.00,116.88 261.00,117.63 ZM 184.65 113.43 C179.84,115.89 177.34,116.46 169.93,116.82 C162.45,117.18 161.00,117.00 161.00,115.74 C161.00,114.91 161.86,114.01 162.91,113.73 C166.04,112.91 166.51,102.64 164.63,76.00 C162.09,40.01 162.28,37.87 167.75,39.62 C173.76,41.54 173.58,41.09 174.98,57.61 C175.70,66.11 176.68,73.30 177.16,73.60 C177.63,73.89 181.04,72.71 184.74,70.96 C192.13,67.47 197.73,67.29 202.47,70.39 C206.21,72.84 206.60,76.31 204.09,84.92 C199.72,99.92 193.65,108.82 184.65,113.43 ZM 111.38 116.61 C102.22,120.44 91.76,116.15 86.71,106.50 C83.72,100.78 82.94,79.07 85.48,72.40 C88.57,64.33 97.50,60.72 108.64,63.03 C112.61,63.85 115.27,65.12 117.30,67.15 C120.10,69.95 120.16,70.17 118.51,71.99 C116.88,73.79 116.90,74.60 118.95,87.39 C120.74,98.59 120.91,101.62 119.95,105.19 C118.40,110.94 115.41,114.93 111.38,116.61 ZM 150.25 116.37 C146.77,118.17 139.88,118.42 136.00,116.88 C131.99,115.29 126.03,108.85 125.05,105.03 C124.55,103.09 123.83,95.58 123.45,88.35 C122.80,76.00 122.89,74.94 124.99,70.74 C127.91,64.89 131.85,63.00 141.13,63.00 C148.79,63.00 154.06,64.83 156.51,68.32 C157.79,70.14 157.76,70.60 156.30,72.22 C154.76,73.92 154.77,74.30 156.47,77.77 C159.17,83.32 159.80,100.24 157.56,107.09 C155.67,112.89 154.77,114.03 150.25,116.37 ZM 41.21 123.89 C31.88,128.65 22.69,126.61 14.76,118.02 C8.32,111.04 7.31,106.79 6.58,83.50 C6.25,73.05 5.71,63.49 5.37,62.25 C4.35,58.45 8.74,59.40 13.03,63.92 C17.84,68.97 19.04,74.24 18.74,89.00 C18.53,98.97 18.77,100.95 20.50,103.90 C26.43,113.96 36.42,113.76 41.45,103.49 C44.01,98.27 44.63,85.38 43.03,70.88 C42.36,64.82 42.04,59.63 42.31,59.35 C43.29,58.38 48.93,62.05 51.37,65.25 C52.74,67.04 54.39,70.66 55.06,73.31 C56.70,79.83 55.76,100.88 53.53,107.52 C51.24,114.33 45.82,121.54 41.21,123.89 ZM 68.89 137.08 C65.85,139.24 59.72,140.42 57.00,139.36 C51.78,137.32 47.01,134.47 47.31,133.56 C47.84,131.94 51.97,131.67 56.30,132.97 C59.63,133.97 60.46,133.89 62.07,132.43 C67.76,127.29 70.27,108.82 68.10,88.12 C66.50,72.79 65.42,69.85 61.00,68.74 C57.43,67.84 54.18,65.48 55.16,64.51 C56.07,63.59 72.51,61.85 77.06,62.19 C82.58,62.59 83.22,64.59 78.48,66.57 C75.16,67.96 74.83,68.42 75.35,70.99 C77.06,79.55 78.21,97.94 77.78,109.90 C77.34,122.04 77.00,124.13 74.58,129.23 C73.10,132.38 70.53,135.91 68.89,137.08 ZM 102.97 109.17 C104.83,109.98 108.22,109.14 109.26,107.62 C111.46,104.38 113.21,95.22 112.74,89.40 C112.05,80.81 109.40,75.60 105.50,75.17 C99.10,74.48 100.13,71.05 106.75,71.02 C110.46,71.00 111.21,68.72 108.07,67.04 C103.46,64.57 97.00,66.97 97.00,71.15 C97.00,72.17 96.62,73.00 96.15,73.00 C94.64,73.00 92.00,92.14 92.94,96.27 C94.30,102.24 98.00,107.00 102.97,109.17 ZM 138.03 109.37 C145.82,115.92 150.98,109.58 150.99,93.46 C151.00,83.92 148.01,77.65 143.25,77.19 C138.32,76.71 139.07,74.18 144.25,73.81 C149.20,73.45 149.94,71.39 145.93,69.13 C139.68,65.62 134.25,71.41 132.20,83.77 C129.92,97.56 131.33,103.73 138.03,109.37 ZM 177.74 105.27 C179.45,107.15 179.61,107.07 184.57,101.74 C190.68,95.18 193.56,89.38 194.52,81.72 L 195.23 76.00 L 192.07 76.00 C186.12,76.00 180.39,80.43 177.55,87.23 C175.38,92.42 175.49,102.78 177.74,105.27 ZM 77.75 56.01 C75.24,57.54 72.79,57.98 67.00,57.93 C55.43,57.84 52.01,55.75 56.54,51.55 C58.00,50.20 60.73,48.59 62.60,47.97 C65.22,47.10 66.00,46.29 66.00,44.42 C66.00,42.39 66.49,42.00 69.07,42.00 C74.88,42.00 81.00,46.71 81.00,51.19 C81.00,53.32 80.19,54.52 77.75,56.01 ZM 221.25 101.45 C220.96,105.12 221.13,108.00 221.64,108.00 C225.64,108.00 231.22,97.58 235.30,82.50 C236.64,77.55 238.07,72.71 238.47,71.75 C239.65,68.98 237.47,69.69 233.92,73.23 C228.71,78.44 221.88,93.66 221.25,101.45 ZM 130.24 49.62 C126.80,52.58 123.25,55.00 122.37,55.00 C121.49,55.00 117.55,51.81 113.63,47.91 C109.71,44.02 107.74,41.59 109.25,42.53 C111.93,44.19 112.60,43.77 112.11,40.73 C112.05,40.31 113.62,40.65 115.62,41.48 C121.66,44.01 129.82,42.98 134.40,39.11 C136.26,37.54 136.27,37.57 134.58,40.19 C133.45,41.94 132.26,42.69 131.17,42.35 C129.79,41.90 129.75,41.99 130.95,42.84 C132.49,43.93 132.92,43.78 137.24,40.64 C138.74,39.54 140.27,38.94 140.63,39.29 C140.98,39.65 140.09,40.40 138.63,40.95 C137.18,41.50 136.10,42.47 136.24,43.10 C136.38,43.72 133.68,46.66 130.24,49.62 Z" fill="rgb(182,50,102)"/>
<path d="M 128.00 32.00 C125.83,34.17 121.81,34.50 118.28,32.79 C115.33,31.37 113.66,26.00 114.54,20.79 C115.46,15.32 116.98,13.85 120.64,14.89 C122.21,15.34 124.40,15.36 125.50,14.92 C129.75,13.26 130.00,13.66 130.00,22.00 C130.00,28.67 129.67,30.33 128.00,32.00 ZM 119.32 42.56 C118.03,42.33 116.79,41.97 115.62,41.48 C113.62,40.65 112.05,40.31 112.11,40.73 C112.60,43.77 111.93,44.19 109.25,42.53 C107.74,41.59 109.71,44.02 113.63,47.91 C117.17,51.43 120.71,54.36 122.02,54.91 C117.84,53.33 95.00,31.46 95.00,28.87 C95.00,27.49 102.64,20.00 104.04,20.00 C104.57,20.00 105.02,21.69 105.04,23.75 C105.10,28.36 107.19,34.45 109.65,37.17 C111.77,39.51 115.76,41.66 119.32,42.56 ZM 140.64 39.68 C140.73,39.53 140.73,39.40 140.63,39.29 C140.27,38.94 138.74,39.54 137.24,40.64 C132.92,43.78 132.49,43.93 130.95,42.84 C129.75,41.99 129.79,41.90 131.17,42.35 C132.26,42.69 133.45,41.94 134.58,40.19 C136.27,37.57 136.26,37.54 134.40,39.11 C131.86,41.26 128.22,42.53 124.45,42.81 C128.54,42.06 133.93,39.31 136.11,36.64 C138.19,34.11 140.00,27.54 140.00,22.56 C140.00,20.60 140.39,19.00 140.87,19.00 C142.19,19.00 150.00,27.77 150.00,29.25 C150.00,29.91 145.69,34.59 140.64,39.68 ZM 130.24 49.62 C133.68,46.66 136.38,43.72 136.24,43.10 C136.10,42.47 137.18,41.50 138.63,40.95 C139.28,40.71 139.81,40.42 140.18,40.15 C135.42,44.93 130.12,49.96 127.17,52.33 C125.34,53.80 123.20,55.00 122.41,55.00 C122.41,55.00 122.40,55.00 122.39,55.00 C123.31,54.96 126.82,52.55 130.24,49.62 Z" fill="rgb(212,112,153)"/>
<path d="M 129.49 29.46 C129.89,27.98 130.00,25.80 130.00,22.00 C130.00,13.66 129.75,13.26 125.50,14.92 C124.40,15.36 122.21,15.34 120.64,14.89 C116.98,13.85 115.46,15.32 114.54,20.79 C114.41,21.51 114.34,22.24 114.31,22.97 C114.19,21.85 114.08,20.68 113.98,19.50 L 113.24 10.50 L 116.82 6.75 C118.79,4.69 121.20,3.00 122.17,3.00 C123.14,3.00 125.54,4.42 127.52,6.15 C130.22,8.52 131.39,9.01 132.25,8.15 C132.88,7.52 134.05,7.00 134.84,7.00 C135.78,7.00 135.37,7.90 133.64,9.64 C131.36,11.91 131.00,13.12 130.99,18.39 C130.99,22.98 130.45,26.82 129.49,29.46 ZM 115.03 28.38 C115.69,30.40 116.76,31.98 118.13,32.72 C116.87,32.07 115.88,31.19 115.43,30.12 C115.31,29.86 115.17,29.24 115.03,28.38 ZM 128.00 32.00 C128.28,31.72 128.51,31.45 128.72,31.15 C128.22,32.02 127.65,32.65 127.02,32.99 C125.98,33.55 124.72,33.82 123.42,33.86 C125.23,33.76 126.87,33.13 128.00,32.00 Z" fill="rgb(227,162,188)"/>
<path d="M 0.00 74.00 L 0.00 0.00 L 134.00 0.00 L 268.00 0.00 L 268.00 74.00 L 268.00 148.00 L 134.00 148.00 L 0.00 148.00 L 0.00 74.00 ZM 68.89 137.08 C70.53,135.91 73.10,132.38 74.58,129.23 C77.00,124.13 77.34,122.04 77.78,109.90 C78.21,97.94 77.06,79.55 75.35,70.99 C74.83,68.42 75.16,67.96 78.48,66.57 C83.22,64.59 82.58,62.59 77.06,62.19 C72.51,61.85 56.07,63.59 55.16,64.51 C54.18,65.48 57.43,67.84 61.00,68.74 C65.42,69.85 66.50,72.79 68.10,88.12 C70.27,108.82 67.76,127.29 62.07,132.43 C60.46,133.89 59.63,133.97 56.30,132.97 C51.97,131.67 47.84,131.94 47.31,133.56 C47.01,134.47 51.78,137.32 57.00,139.36 C59.72,140.42 65.85,139.24 68.89,137.08 ZM 41.21 123.89 C45.82,121.54 51.24,114.33 53.53,107.52 C55.76,100.88 56.70,79.83 55.06,73.31 C54.39,70.66 52.74,67.04 51.37,65.25 C48.93,62.05 43.29,58.38 42.31,59.35 C42.04,59.63 42.36,64.82 43.03,70.88 C44.63,85.38 44.01,98.27 41.45,103.49 C36.42,113.76 26.43,113.96 20.50,103.90 C18.77,100.95 18.53,98.97 18.74,89.00 C19.04,74.24 17.84,68.97 13.03,63.92 C8.74,59.40 4.35,58.45 5.37,62.25 C5.71,63.49 6.25,73.05 6.58,83.50 C7.31,106.79 8.32,111.04 14.76,118.02 C22.69,126.61 31.88,128.65 41.21,123.89 ZM 261.00 117.63 C261.00,116.88 260.08,115.10 258.96,113.68 C257.84,112.26 255.98,107.36 254.82,102.80 C253.01,95.63 252.80,92.70 253.32,81.29 L 253.91 68.07 L 251.20 66.19 C247.23,63.42 242.34,62.00 236.78,62.00 C232.16,62.00 231.48,62.35 226.00,67.58 C221.72,71.66 218.88,75.67 215.41,82.52 C211.21,90.81 210.63,92.76 210.28,99.69 C209.94,106.32 210.19,108.00 211.96,110.81 C217.33,119.34 231.03,118.76 235.57,109.79 C239.35,102.34 242.41,101.05 243.43,106.47 C244.23,110.72 248.35,115.81 252.45,117.59 C256.50,119.36 261.00,119.38 261.00,117.63 ZM 111.38 116.61 C115.41,114.93 118.40,110.94 119.95,105.19 C120.91,101.62 120.74,98.59 118.95,87.39 C116.90,74.60 116.88,73.79 118.51,71.99 C120.16,70.17 120.10,69.95 117.30,67.15 C115.27,65.12 112.61,63.85 108.64,63.03 C97.50,60.72 88.57,64.33 85.48,72.40 C82.94,79.07 83.72,100.78 86.71,106.50 C91.76,116.15 102.22,120.44 111.38,116.61 ZM 150.25 116.37 C154.77,114.03 155.67,112.89 157.56,107.09 C159.80,100.24 159.17,83.32 156.47,77.77 C154.77,74.30 154.76,73.92 156.30,72.22 C157.76,70.60 157.79,70.14 156.51,68.32 C154.06,64.83 148.79,63.00 141.13,63.00 C131.85,63.00 127.91,64.89 124.99,70.74 C122.89,74.94 122.80,76.00 123.45,88.35 C123.83,95.58 124.55,103.09 125.05,105.03 C126.03,108.85 131.99,115.29 136.00,116.88 C139.88,118.42 146.77,118.17 150.25,116.37 ZM 184.65 113.43 C193.65,108.82 199.72,99.92 204.09,84.92 C206.60,76.31 206.21,72.84 202.47,70.39 C197.73,67.29 192.13,67.47 184.74,70.96 C181.04,72.71 177.63,73.89 177.16,73.60 C176.68,73.30 175.70,66.11 174.98,57.61 C173.58,41.09 173.76,41.54 167.75,39.62 C162.28,37.87 162.09,40.01 164.63,76.00 C166.51,102.64 166.04,112.91 162.91,113.73 C161.86,114.01 161.00,114.91 161.00,115.74 C161.00,117.00 162.45,117.18 169.93,116.82 C177.34,116.46 179.84,115.89 184.65,113.43 ZM 77.75 56.01 C80.19,54.52 81.00,53.32 81.00,51.19 C81.00,46.71 74.88,42.00 69.07,42.00 C66.49,42.00 66.00,42.39 66.00,44.42 C66.00,46.29 65.22,47.10 62.60,47.97 C60.73,48.59 58.00,50.20 56.54,51.55 C52.01,55.75 55.43,57.84 67.00,57.93 C72.79,57.98 75.24,57.54 77.75,56.01 ZM 127.17 52.33 C133.39,47.35 150.00,30.54 150.00,29.25 C150.00,27.77 142.19,19.00 140.87,19.00 C140.39,19.00 140.00,20.60 140.00,22.56 C140.00,27.54 138.19,34.11 136.11,36.64 C133.56,39.76 126.62,43.00 122.50,43.00 C118.49,43.00 112.45,40.26 109.65,37.17 C107.19,34.45 105.10,28.36 105.04,23.75 C105.02,21.69 104.57,20.00 104.04,20.00 C102.64,20.00 95.00,27.49 95.00,28.87 C95.00,31.56 119.59,55.00 122.41,55.00 C123.20,55.00 125.34,53.80 127.17,52.33 ZM 127.02 32.99 C129.46,31.68 130.99,26.08 130.99,18.39 C131.00,13.12 131.36,11.91 133.64,9.64 C135.37,7.90 135.78,7.00 134.84,7.00 C134.05,7.00 132.88,7.52 132.25,8.15 C131.39,9.01 130.22,8.52 127.52,6.15 C125.54,4.42 123.14,3.00 122.17,3.00 C121.20,3.00 118.79,4.69 116.82,6.75 L 113.24 10.50 L 113.98 19.50 C114.40,24.45 115.04,29.23 115.43,30.12 C116.82,33.39 123.29,34.99 127.02,32.99 ZM 221.25 101.45 C221.88,93.66 228.71,78.44 233.92,73.23 C237.47,69.69 239.65,68.98 238.47,71.75 C238.07,72.71 236.64,77.55 235.30,82.50 C231.22,97.58 225.64,108.00 221.64,108.00 C221.13,108.00 220.96,105.12 221.25,101.45 ZM 102.97 109.17 C98.00,107.00 94.30,102.24 92.94,96.27 C92.00,92.14 94.64,73.00 96.15,73.00 C96.62,73.00 97.00,72.17 97.00,71.15 C97.00,66.97 103.46,64.57 108.07,67.04 C111.21,68.72 110.46,71.00 106.75,71.02 C100.13,71.05 99.10,74.48 105.50,75.17 C109.40,75.60 112.05,80.81 112.74,89.40 C113.21,95.22 111.46,104.38 109.26,107.62 C108.22,109.14 104.83,109.98 102.97,109.17 ZM 138.03 109.37 C131.33,103.73 129.92,97.56 132.20,83.77 C134.25,71.41 139.68,65.62 145.93,69.13 C149.94,71.39 149.20,73.45 144.25,73.81 C139.07,74.18 138.32,76.71 143.25,77.19 C148.01,77.65 151.00,83.92 150.99,93.46 C150.98,109.58 145.82,115.92 138.03,109.37 ZM 177.74 105.27 C175.49,102.78 175.38,92.42 177.55,87.23 C180.39,80.43 186.12,76.00 192.07,76.00 L 195.23 76.00 L 194.52 81.72 C193.56,89.38 190.68,95.18 184.57,101.74 C179.61,107.07 179.45,107.15 177.74,105.27 Z" fill="rgb(254,253,254)"/>
</g>
</svg>